<?xml version="1.0" encoding="UTF-8"?>
<svg id="Layer_1" data-name="Layer 1" xmlns="http://www.w3.org/2000/svg" viewBox="0 0 841.89 236.61">
  <defs>
    <style>
      .cls-1 {
        fill: #e2485c;
      }

      .cls-2 {
        fill: #010101;
      }
    </style>
  </defs>
  <g>
    <path class="cls-2" d="M155.37,200.33v-22.11h1.93l10.11,17.25h-1.01l10.01-17.25h1.93v22.11h-2.24v-18.61h.54l-9.23,15.8h-1.1l-9.29-15.8h.6v18.61h-2.24Z"/>
    <path class="cls-2" d="M188.32,200.33l10.11-22.11h2.31l10.11,22.11h-2.46l-9.29-20.76h.95l-9.29,20.76h-2.43ZM192.3,194.43l.69-1.9h12.86l.69,1.9h-14.25Z"/>
    <path class="cls-2" d="M220.83,200.33v-22.11h2.34v22.11h-2.34ZM222.85,194.84l-.09-2.84,13.39-13.77h2.69l-9.76,10.24-1.33,1.42-4.9,4.96ZM236.72,200.33l-9.54-10.99,1.58-1.71,10.74,12.7h-2.78Z"/>
    <path class="cls-2" d="M251.95,198.31h13.3v2.02h-15.64v-22.11h15.16v2.02h-12.82v18.07ZM251.69,188.11h11.69v1.99h-11.69v-1.99Z"/>
    <path class="cls-2" d="M291.65,200.33v-22.11h2.34v22.11h-2.34Z"/>
    <path class="cls-2" d="M311.81,200.33v-20.09h-7.77v-2.02h17.88v2.02h-7.77v20.09h-2.34Z"/>
    <path class="cls-2" d="M346.56,200.33v-22.11h2.34v20.09h12.38v2.02h-14.72Z"/>
    <path class="cls-2" d="M367.95,200.33l10.11-22.11h2.31l10.11,22.11h-2.46l-9.29-20.76h.95l-9.29,20.76h-2.43ZM371.93,194.43l.69-1.9h12.86l.69,1.9h-14.25Z"/>
    <path class="cls-2" d="M406.55,200.52c-1.64,0-3.22-.27-4.72-.8-1.51-.54-2.67-1.23-3.49-2.07l.92-1.8c.78.76,1.83,1.4,3.14,1.91,1.32.52,2.7.77,4.15.77s2.52-.17,3.4-.52c.87-.35,1.52-.82,1.93-1.41.41-.59.61-1.24.61-1.96,0-.86-.25-1.56-.74-2.08-.5-.53-1.14-.94-1.94-1.25-.8-.3-1.69-.57-2.65-.8s-1.94-.48-2.91-.74c-.97-.26-1.86-.62-2.67-1.06-.81-.44-1.47-1.03-1.96-1.75-.49-.73-.74-1.68-.74-2.86,0-1.1.29-2.1.87-3.02.58-.92,1.47-1.65,2.67-2.21,1.2-.56,2.74-.84,4.61-.84,1.24,0,2.47.17,3.7.52,1.22.35,2.27.83,3.16,1.44l-.79,1.86c-.95-.63-1.95-1.09-3.02-1.39-1.06-.29-2.09-.44-3.08-.44-1.33,0-2.42.18-3.29.54-.86.36-1.5.84-1.91,1.44-.41.6-.61,1.28-.61,2.04,0,.86.25,1.56.74,2.08.49.53,1.15.94,1.96,1.23.81.29,1.7.56,2.67.79.97.23,1.93.48,2.89.76.96.27,1.84.63,2.65,1.06s1.46,1.01,1.96,1.72c.49.72.74,1.65.74,2.81,0,1.07-.29,2.07-.88,2.98-.59.92-1.49,1.65-2.7,2.21-1.21.56-2.76.84-4.66.84Z"/>
    <path class="cls-2" d="M430.18,200.33v-20.09h-7.77v-2.02h17.88v2.02h-7.77v20.09h-2.34Z"/>
    <path class="cls-2" d="M467.27,200.33h-2.34v-22.11h15.16v2.02h-12.82v20.09ZM467.02,188.93h11.69v2.02h-11.69v-2.02Z"/>
    <path class="cls-2" d="M500.63,200.52c-1.66,0-3.21-.28-4.63-.84-1.42-.56-2.65-1.35-3.7-2.37-1.04-1.02-1.85-2.21-2.43-3.57-.58-1.36-.87-2.85-.87-4.47s.29-3.11.87-4.47c.58-1.36,1.39-2.55,2.43-3.57,1.04-1.02,2.27-1.81,3.68-2.37s2.96-.84,4.64-.84,3.2.28,4.61.84c1.41.56,2.64,1.34,3.68,2.35,1.04,1.01,1.85,2.2,2.43,3.57.58,1.37.87,2.86.87,4.49s-.29,3.12-.87,4.49c-.58,1.37-1.39,2.56-2.43,3.57-1.04,1.01-2.27,1.8-3.68,2.35-1.41.56-2.95.84-4.61.84ZM500.63,198.44c1.33,0,2.55-.23,3.68-.68,1.13-.45,2.11-1.09,2.94-1.93s1.48-1.8,1.94-2.91c.46-1.11.69-2.32.69-3.65s-.23-2.54-.69-3.65c-.46-1.1-1.11-2.07-1.94-2.91-.83-.83-1.81-1.47-2.94-1.93-1.13-.45-2.35-.68-3.68-.68s-2.56.23-3.7.68c-1.14.45-2.12,1.1-2.95,1.93s-1.48,1.8-1.96,2.91c-.47,1.11-.71,2.32-.71,3.65s.24,2.52.71,3.63c.47,1.12,1.13,2.09,1.96,2.92.83.83,1.82,1.48,2.95,1.93,1.14.45,2.37.68,3.7.68Z"/>
    <path class="cls-2" d="M523.79,200.33v-22.11h8.28c1.87,0,3.49.3,4.83.9,1.35.6,2.39,1.47,3.11,2.59.73,1.13,1.09,2.49,1.09,4.09s-.36,2.9-1.09,4.03c-.73,1.13-1.76,1.99-3.11,2.59-1.35.6-2.96.9-4.83.9h-6.98l1.04-1.07v8.09h-2.34ZM526.13,192.44l-1.04-1.1h6.92c2.21,0,3.89-.49,5.04-1.45,1.15-.97,1.72-2.33,1.72-4.08s-.57-3.14-1.72-4.11c-1.15-.97-2.83-1.45-5.04-1.45h-6.92l1.04-1.1v13.3ZM538.89,200.33l-5.69-8.02h2.53l5.72,8.02h-2.56Z"/>
    <path class="cls-2" d="M555.28,198.31h13.3v2.02h-15.64v-22.11h15.16v2.02h-12.82v18.07ZM555.03,188.11h11.69v1.99h-11.69v-1.99Z"/>
    <path class="cls-2" d="M586.37,200.33l-9.79-22.11h2.53l9.16,20.82h-1.39l9.22-20.82h2.37l-9.79,22.11h-2.31Z"/>
    <path class="cls-2" d="M610.32,198.31h13.3v2.02h-15.64v-22.11h15.16v2.02h-12.82v18.07ZM610.06,188.11h11.69v1.99h-11.69v-1.99Z"/>
    <path class="cls-2" d="M635.43,200.33v-22.11h8.28c1.87,0,3.49.3,4.83.9,1.35.6,2.39,1.47,3.11,2.59.73,1.13,1.09,2.49,1.09,4.09s-.36,2.9-1.09,4.03c-.73,1.13-1.76,1.99-3.11,2.59-1.35.6-2.96.9-4.83.9h-6.98l1.04-1.07v8.09h-2.34ZM637.77,192.44l-1.04-1.1h6.92c2.21,0,3.89-.49,5.04-1.45,1.15-.97,1.72-2.33,1.72-4.08s-.57-3.14-1.72-4.11c-1.15-.97-2.83-1.45-5.04-1.45h-6.92l1.04-1.1v13.3ZM650.53,200.33l-5.69-8.02h2.53l5.72,8.02h-2.56Z"/>
    <path class="cls-2" d="M679.69,200.49c-.46,0-.86-.16-1.18-.49-.33-.33-.49-.71-.49-1.15s.16-.85.49-1.15c.33-.3.72-.46,1.18-.46s.88.15,1.18.46c.3.31.46.69.46,1.15s-.15.83-.46,1.15c-.31.33-.7.49-1.18.49ZM678.8,193.7l-.44-15.48h2.65l-.47,15.48h-1.74Z"/>
  </g>
  <g>
    <g>
      <path class="cls-1" d="M141.84,92.35c-9.94.82-19.76,2.33-29.5,4.48-5.07,1.12-10.02,2.64-14.97,4.16-3.44,17.39-5.82,35.04-9.74,52.29-.21.9-2.44,1-2.42,0,.33-16.74,3.04-33.75,5.8-50.38-2.47.72-4.95,1.4-7.46,1.98-.6.14-2.15-.51-1.12-1.11,2.84-1.65,5.93-3,9.13-4.18.27-1.6.53-3.19.79-4.78,2.42-14.73,4.8-29.57,7.94-44.2-6.35,1.19-12.61,2.77-18.72,4.85.75.23,1.51.48,2.28.77,1.5.57.9,1.88-.47,2.07-4.12.58-7.9.46-12.04.07-2.64-.25-4.15-3.4-.95-4.2,10.27-2.57,20.33-5.09,30.61-6.87.68-3.03,1.38-6.05,2.13-9.05.86-3.41,10.34-2.71,9.28,1.48-.51,2.04-1.04,4.08-1.56,6.12,1.95-.23,3.92-.43,5.9-.58,14.95-1.19,30.47-1.2,45.28,1.46,1.83.33,1.14,1.97-.43,1.86-16.91-1.26-34.46-1.63-51.58.51-4.13,15.85-8.45,31.62-11.81,47.68-.05.22-.09.45-.14.67,4.17-1.22,8.38-2.24,12.38-3.23,9.82-2.42,19.82-4.03,29.88-5.06,2.84-.29,5.26,2.87,1.51,3.18Z"/>
      <path class="cls-1" d="M178.35,97.54c-2.46,1.62-6.5,3.39-10.85,4.47-1.21,3.47-3.79,6.63-7.29,8.75-3.92,2.38-9.04,3.01-12.94.18-5.37-3.91-3.05-10.37-.17-15.04.22-.36.53-.66.9-.9,0-.02,0-.03-.01-.05-1.95-9.42,10.51-12.08,16.11-6.72,3.68,3.52,4.75,7.88,3.91,11.97,3.38-.98,6.51-2.41,8.59-3.69.77-.48,3,.21,1.77,1.02ZM163.13,93.83c-.58-1.86-1.5-3.84-2.9-5.22-4.21-4.2-10.05.57-9.44,5.54,3.03-.21,6.35,1.29,4.48,3.75-.43.57-.87,1.16-1.29,1.76,2.39,1.69,5.76,2,9.27,1.56.77-2.35.69-4.77-.12-7.38ZM162.57,102.89c-3.59.37-7.07.08-9.76-1.33-.89,1.64-1.5,3.4-1.35,5.31.48,6.3,8.42.23,10.34-2.66.29-.44.54-.88.77-1.32Z"/>
      <path class="cls-1" d="M193.92,93.83c-.94-2.99-3.45-4.02-5.37-.92-1.12,1.81-2.09,3.74-3.07,5.62-1.44,2.75-2.74,5.58-4.17,8.33-.07,1.29-.25,2.56-.68,3.8-.22.63-1.39.43-1.77.13-.23-.18-.45-.39-.67-.59-.02-.01-.03-.03-.05-.04-5.03-4.69-7.08-15.11-3.65-21.03,1.29-2.22,7.84-2.7,8.03.63.21,3.65-1.13,7.46-1.23,11.18,0,.18,0,.35,0,.53.66-1.36,1.35-2.71,2.05-4.05,1.35-2.61,2.65-6.13,5.02-8.03,4.16-3.33,8.34.09,10.81,3.6,1.14,1.63-4.52,3.14-5.24.84Z"/>
      <path class="cls-1" d="M225.75,97.93c-4.05,7.8-11.38,20.62-21.44,21.08-11.92.55-12.8-12.36-8.94-20.77,2.36-5.14,12.83-18.02,19.45-10.73,2.62,2.88.45,6.95-1.67,9.38-2.66,3.05-6.16,4.85-10.01,5.62-.31,1.4-.52,2.72-.62,3.87-.21,2.25-.71,6.27.65,8.25,2.26,3.28,7.24-.94,9.42-2.78,4.7-3.94,8.4-8.69,10.87-14.3.38-.86,2.74-.5,2.29.37ZM203.73,100.26c2.67-.94,5.04-2.53,6.84-4.86.64-.83,2.38-3.01,2.01-4.24-1.2-4.03-2.85-.75-3.73-.04-2.39,1.93-4.08,5.56-5.13,9.14Z"/>
      <path class="cls-1" d="M260.97,97.03c-3.88,2.19-8.37,4.24-12.82,2.45-1.49-.6-2.68-1.65-3.37-2.9-1.96,4.49-4.23,8.82-7.56,12.48-2.72,2.99-6.86,6.71-11.25,6.39-11.41-.83-4.14-22.22-.93-27.48,1.89-3.09,10.79-1.55,8.82,1.41-2.55,3.83-4.75,7.72-6.24,12.09-.67,1.97-1.22,4.02-1.63,6.07-.59,2.93-1.89,6.7,3.17,5.35,3.69-.99,7.39-6.23,9.42-9.3,2.29-3.45,4.09-7.19,5.84-10.94.11-.31.25-.61.43-.91.07-.14.14-.29.2-.43.05-.1.15-.18.26-.24.02-.03.04-.06.06-.09.43-.51,2.61-.36,2.13.52-1.27,2.38-.17,5.49,2.38,6.49,3.15,1.24,6.65-.6,9.44-1.92.71-.34,2.88.26,1.65.96Z"/>
      <path class="cls-1" d="M287.72,97.93c-4.05,7.8-11.38,20.62-21.44,21.08-11.92.55-12.8-12.36-8.94-20.77,2.36-5.14,12.83-18.02,19.45-10.73,2.62,2.88.45,6.95-1.67,9.38-2.66,3.05-6.16,4.85-10.01,5.62-.31,1.4-.52,2.72-.62,3.87-.21,2.25-.71,6.27.65,8.25,2.26,3.28,7.24-.94,9.42-2.78,4.7-3.94,8.4-8.69,10.87-14.3.38-.86,2.74-.5,2.29.37ZM265.7,100.26c2.67-.94,5.04-2.53,6.84-4.86.64-.83,2.38-3.01,2.01-4.24-1.2-4.03-2.85-.75-3.73-.04-2.39,1.93-4.08,5.56-5.13,9.14Z"/>
      <path class="cls-1" d="M302.88,93.83c-.94-2.99-3.45-4.02-5.37-.92-1.12,1.81-2.09,3.74-3.07,5.62-1.44,2.75-2.74,5.58-4.17,8.33-.07,1.29-.25,2.56-.68,3.8-.22.63-1.39.43-1.77.13-.23-.18-.45-.39-.67-.59-.02-.01-.03-.03-.05-.04-5.03-4.69-7.08-15.11-3.65-21.03,1.29-2.22,7.84-2.7,8.03.63.21,3.65-1.13,7.46-1.23,11.18,0,.18,0,.35,0,.53.66-1.36,1.35-2.71,2.05-4.05,1.35-2.61,2.65-6.13,5.02-8.03,4.16-3.33,8.34.09,10.81,3.6,1.14,1.63-4.52,3.14-5.24.84Z"/>
    </g>
    <g>
      <path class="cls-1" d="M371.36,115.13c-3.46,2.53-6.76,5.3-9.88,8.24,1.27,1.23,2.46,2.52,3.54,3.95,5.92,7.87,7.13,18.16.15,25.81-4.8,5.26-14.54,9.21-20.54,3.49-8.05-7.67.53-19.12,5.78-25.47,1.6-1.93,3.28-3.79,5.02-5.58-7.09-5.93-16.04-9.78-22.24-16.81-13.98-15.85-11.31-40.21,3.33-54.58,7.25-7.11,17.11-11.45,26.91-13.64,8.74-1.96,19.6-2.52,27.07,3.35,8.3,6.53,7.45,18.1,3.62,26.87-4.39,10.05-12.12,18.58-21.04,24.79-2.64,1.84-10.11-.81-5.98-3.47,11.11-7.14,25.26-20.57,24.87-34.97-.5-18.92-24.16-16.65-35.9-10.27-19.58,10.63-29.47,36.52-17.18,56.31,5,8.05,13.64,12.4,20.63,18.43,13.14-12.11,29.41-20.77,46.37-26.17,1.19-.38,3.45.88,1.55,1.53-12.8,4.39-25.1,10.18-36.06,18.19ZM362.04,132.87c-1.33-2.06-2.88-3.86-4.58-5.49-.52.55-1.06,1.09-1.57,1.65-4.37,4.83-10,10.92-11.02,17.6-.91,5.95,2.46,12.53,10.16,10.14,3.31-1.03,6.38-3.99,8.18-6.92,3.34-5.44,2.16-11.82-1.16-16.99Z"/>
      <path class="cls-1" d="M428.89,98.31c-3.01,6.97-11.11,21.28-20.47,19.71-12.33-2.07-5.17-22.7-1.96-29.42,1.63-3.41,10.97-1.83,9.09,1.45-2.16,3.77-3.91,7.68-4.97,11.9-.66,2.64-3.16,10.3-.81,12.71,4.55,4.66,14.87-13.69,16.25-16.82.45-1.03,3.38-.72,2.87.46ZM411.13,80.02c.09-.82.28-1.71.7-2.43.41-.72,1-1.36,1.74-1.77.41-.22.85-.38,1.29-.51.28-.09.56-.16.86-.22.3-.06.61-.09.93-.1.05,0,.1,0,.15,0,.37,0,.74.01,1.11.06.52.04.82.09.89.16.04,0,.07.01.11.02,1.55.38,3.49,1.47,2.83,3.35-.16.46-.4.86-.56,1.31,0,.04-.01.08-.02.12-.24,2.28-3.16,2.86-5.02,2.91-1.13.03-2.56-.26-3.55-.85-.63-.37-1.56-1.2-1.47-2.06Z"/>
      <path class="cls-1" d="M461.52,98.35c-4.4,10.92-9.15,22-15.11,32.18-3.05,5.2-6.33,11.08-11.11,14.94-5.05,4.07-10.96,1.8-12.89-4.19-3.14-9.7-.97-21.03.61-30.8,3.64-22.54,10.69-45.05,18.44-66.51,1.14-3.16,10.01-2.33,8.66,1.38-3.18,8.78-6,17.7-8.69,26.64-3.47,11.53-6.69,23.09-9.45,34.81-2.28,9.66-4.74,19.71-4.91,29.69-.04,2.38.06,6.33,1.79,8.22,2.59,2.81,6.18-1.68,7.87-3.75,4.22-5.17,7.11-11.28,10.22-17.13,4.48-8.44,8.29-17.2,12.33-25.85.37-.78,2.64-.59,2.25.36Z"/>
      <path class="cls-1" d="M497.42,98.52c-4.72,5.17-10.3,10.22-17.64,10.69-4.35.28-10.15-1.66-11.93-5.89-1.11,1.72-2.18,3.46-3.19,5.25-4.89,8.74-8.06,17.89-11.43,27.27-.04.1-.12.17-.23.24-.04.16-.09.33-.14.49-.32,1.19-3.88,1.05-3.68-.29,4.53-30.19,12.61-60.4,23.15-89.02,1.14-3.08,9.77-2.24,8.43,1.35-7.63,20.4-14.36,40.94-20.49,61.72,5.03-10.25,11.41-19.95,18.31-28.11,1.27-1.5,6.35-.41,4.59,1.56-4.73,5.28-9.25,10.68-13.27,16.46.04.04.08.08.11.12,3.22,6.46,8.51,9.04,15.78,5.14,3.57-1.92,6.52-4.96,9.46-7.71.62-.58,3.02-.22,2.16.73Z"/>
    </g>
    <g>
      <path class="cls-1" d="M573.94,92.35c-9.94.82-19.76,2.33-29.5,4.48-5.07,1.12-10.02,2.64-14.97,4.16-3.44,17.39-5.82,35.04-9.75,52.29-.2.9-2.44,1-2.42,0,.33-16.74,3.04-33.75,5.8-50.38-2.47.72-4.95,1.4-7.46,1.98-.6.14-2.16-.51-1.12-1.11,2.84-1.65,5.93-3,9.13-4.18.27-1.6.53-3.19.79-4.78,2.42-14.73,4.8-29.57,7.94-44.2-6.35,1.19-12.61,2.77-18.72,4.85.75.23,1.51.48,2.28.77,1.5.57.9,1.88-.47,2.07-4.12.58-7.91.46-12.04.07-2.64-.25-4.16-3.4-.95-4.2,10.27-2.57,20.33-5.09,30.61-6.87.68-3.03,1.38-6.05,2.13-9.05.86-3.41,10.34-2.71,9.28,1.48-.51,2.04-1.04,4.08-1.56,6.12,1.95-.23,3.92-.43,5.89-.58,14.95-1.19,30.47-1.2,45.28,1.46,1.83.33,1.14,1.97-.43,1.86-16.91-1.26-34.46-1.63-51.58.51-4.13,15.85-8.45,31.62-11.81,47.68-.05.22-.09.45-.13.67,4.17-1.22,8.38-2.24,12.38-3.23,9.82-2.42,19.82-4.03,29.88-5.06,2.84-.29,5.26,2.87,1.51,3.18Z"/>
      <path class="cls-1" d="M616.87,98.35c-4.4,10.92-9.15,22-15.11,32.18-3.05,5.2-6.33,11.08-11.11,14.94-5.05,4.07-10.96,1.8-12.89-4.19-3.14-9.7-.97-21.03.61-30.8,3.64-22.54,10.69-45.05,18.44-66.51,1.14-3.16,10.01-2.33,8.66,1.38-3.18,8.78-6,17.7-8.69,26.64-3.47,11.53-6.69,23.09-9.45,34.81-2.28,9.66-4.74,19.71-4.91,29.69-.04,2.38.06,6.33,1.8,8.22,2.59,2.81,6.18-1.68,7.87-3.75,4.22-5.17,7.11-11.28,10.22-17.13,4.48-8.44,8.29-17.2,12.33-25.85.37-.78,2.64-.59,2.25.36Z"/>
      <path class="cls-1" d="M645.25,97.54c-2.46,1.62-6.5,3.39-10.85,4.47-1.21,3.47-3.79,6.63-7.29,8.75-3.91,2.38-9.04,3.01-12.94.18-5.37-3.91-3.05-10.37-.17-15.04.22-.36.53-.66.9-.9,0-.02,0-.03-.01-.05-1.95-9.42,10.51-12.08,16.11-6.72,3.68,3.52,4.75,7.88,3.91,11.97,3.38-.98,6.51-2.41,8.58-3.69.77-.48,3,.21,1.77,1.02ZM630.03,93.83c-.58-1.86-1.5-3.84-2.9-5.22-4.21-4.2-10.05.57-9.44,5.54,3.03-.21,6.35,1.29,4.48,3.75-.43.57-.87,1.16-1.29,1.76,2.39,1.69,5.76,2,9.27,1.56.77-2.35.69-4.77-.12-7.38ZM629.46,102.89c-3.59.37-7.07.08-9.76-1.33-.89,1.64-1.5,3.4-1.35,5.31.48,6.3,8.42.23,10.34-2.66.29-.44.54-.88.77-1.32Z"/>
      <path class="cls-1" d="M697.02,97.06c-3.72,5.1-12.01,4.8-15.16,0-1,7.92-4.93,18.67-12.47,20.25-3.96.83-8.17-.65-10.89-3.6-1.67-1.81-2.6-3.9-3.05-6.1-2.18,2.23-5.09,3.48-8.91,2.71-9.46-1.92-7.49-12.43-3.83-18.82,1.96-3.42,11.29-1.81,8.42,2.06-2.21,2.99-5.62,8.89-4.45,12.74,1.61,5.3,6.49.65,8.41-1.98-.04-2.3.27-4.66.67-6.91.71-3.93,10.02-3.43,8.94.7-1,3.84-2.04,7.86-1.13,11.83,1.04,4.55,4.67,6.87,8.32,2.79,4.83-5.38,6.75-12.72,8.32-19.56.04-.18.19-.32.38-.41,0-.07,0-.13,0-.2,0-.77,1.78-.73,1.89,0,.99,6.52,8.32,9.83,12.68,3.88.46-.62,2.48-.25,1.84.62Z"/>
      <path class="cls-1" d="M723.58,97.93c-4.05,7.8-11.38,20.62-21.44,21.08-11.92.55-12.8-12.36-8.94-20.77,2.36-5.14,12.83-18.02,19.45-10.73,2.62,2.88.45,6.95-1.67,9.38-2.66,3.05-6.16,4.85-10.01,5.62-.31,1.4-.52,2.72-.62,3.87-.21,2.25-.71,6.27.65,8.25,2.26,3.28,7.24-.94,9.42-2.78,4.7-3.94,8.4-8.69,10.87-14.3.38-.86,2.74-.5,2.29.37ZM701.55,100.26c2.67-.94,5.04-2.53,6.84-4.86.64-.83,2.38-3.01,2.01-4.24-1.2-4.03-2.85-.75-3.73-.04-2.39,1.93-4.08,5.56-5.13,9.14Z"/>
      <path class="cls-1" d="M738.74,93.83c-.94-2.99-3.45-4.02-5.37-.92-1.12,1.81-2.09,3.74-3.07,5.62-1.44,2.75-2.74,5.58-4.17,8.33-.07,1.29-.24,2.56-.68,3.8-.22.63-1.39.43-1.77.13-.23-.18-.45-.39-.67-.59-.02-.01-.03-.03-.05-.04-5.02-4.69-7.08-15.11-3.64-21.03,1.29-2.22,7.84-2.7,8.03.63.21,3.65-1.13,7.46-1.23,11.18,0,.18,0,.35,0,.53.66-1.36,1.35-2.71,2.05-4.05,1.35-2.61,2.65-6.13,5.02-8.03,4.16-3.33,8.34.09,10.81,3.6,1.14,1.63-4.52,3.14-5.24.84Z"/>
      <path class="cls-1" d="M772.92,98.78c-7.47,3.41-14.94,8.37-20.81,14.61.53,1.25,1.04,2.5,1.49,3.76,2.38,6.6,4.06,22.38-6.8,22.77-3.61.13-6.3-2.48-7.08-5.85-1.25-5.45,1.9-11.02,4.9-15.28.58-.82,1.18-1.61,1.8-2.39-1.45-2.25-3.02-4.45-4.37-6.7-5.51-9.17-6.45-23.81,5.59-28.15,6.65-2.4,19.12.48,16.07,9.95-.3.93-2.79.96-3.07,0-1.24-4.21-4.77-8.37-9.49-4.95-3.09,2.24-4.04,6.89-3.97,10.42.11,4.96,2.01,9.57,3.95,14.12,5.78-5.75,12.71-10.28,20.28-13.46.74-.31,2.74.58,1.51,1.14ZM751.2,127.98c-.37-3.41-1.72-6.45-3.41-9.34-1.38,1.94-2.6,3.98-3.62,6.11-1.3,2.71-2.98,7.5-1.21,10.4,4.37,7.17,7.73-.73,8.18-3.28.23-1.29.2-2.6.06-3.89Z"/>
    </g>
  </g>
</svg>